<svg xmlns="http://www.w3.org/2000/svg" width="321" height="157" viewBox="0 0 321 157" version="1.1"><path d="M 92.465 0.914 C 89.334 2.241, 87.689 4.768, 87.784 8.104 C 87.895 12.015, 89.502 13.882, 94.761 16.214 C 100.284 18.663, 102.701 22.166, 101.176 25.513 C 98.821 30.682, 90.848 29.151, 89.328 23.237 L 88.624 20.500 87.912 23 C 86.720 27.183, 86.920 28.562, 88.750 28.778 C 89.713 28.891, 92.363 29.255, 94.639 29.586 C 100.080 30.378, 102.661 28.864, 104.109 24.029 C 105.690 18.755, 103.691 15.723, 96.555 12.567 C 90.822 10.031, 89.145 7.466, 90.980 4.038 C 91.756 2.587, 93.072 2, 95.550 2 C 98.402 2, 99.386 2.586, 101.011 5.250 L 102.993 8.500 102.996 4.750 C 102.999 2.233, 102.548 1, 101.625 1 C 100.869 1, 98.956 0.786, 97.375 0.526 C 95.794 0.265, 93.584 0.439, 92.465 0.914 M 124.585 1.706 C 122.070 3.027, 121.899 3.364, 123.335 4.168 C 124.736 4.952, 125 6.905, 125 16.500 C 125 26.303, 124.755 28.043, 123.250 28.920 C 121.894 29.710, 122.626 29.939, 126.500 29.939 C 130.374 29.939, 131.106 29.710, 129.750 28.920 C 127.091 27.371, 127.235 16.480, 129.934 15.035 C 132.562 13.629, 133.586 13.729, 135.429 15.571 C 137.727 17.869, 137.597 27.553, 135.250 28.920 C 133.870 29.724, 134.441 29.946, 137.950 29.970 C 141.411 29.993, 142.133 29.733, 141.200 28.800 C 140.540 28.140, 140 25.195, 140 22.255 C 140 17.912, 139.539 16.448, 137.545 14.455 C 134.694 11.603, 133.270 11.422, 130.265 13.527 C 128.090 15.051, 128.084 15.038, 127.793 7.614 L 127.500 0.175 124.585 1.706 M 181.724 1.635 C 179.236 2.940, 179.106 3.249, 180.474 4.617 C 181.656 5.799, 182 8.611, 182 17.104 C 182 27.536, 181.891 28.108, 179.750 28.969 C 177.982 29.679, 178.666 29.887, 182.941 29.937 C 187.512 29.990, 188.115 29.800, 186.709 28.750 C 185.311 27.707, 184.991 25.242, 184.767 13.839 L 184.500 0.179 181.724 1.635 M 1 2 C 1 2.550, 1.675 3, 2.500 3 C 3.753 3, 4 5.050, 4 15.450 C 4 26.253, 3.768 28.036, 2.250 28.920 C 0.909 29.701, 1.786 29.939, 6 29.939 C 10.214 29.939, 11.091 29.701, 9.750 28.920 C 8.394 28.130, 8 26.562, 8 21.950 C 8 18.678, 8.435 16, 8.968 16 C 10.686 16, 18.254 26.895, 17.643 28.488 C 17.166 29.732, 18.079 29.992, 22.781 29.955 C 28.076 29.913, 28.301 29.821, 25.816 28.705 C 23.216 27.538, 13 15.680, 13 13.830 C 13 12.327, 22.161 3, 23.637 3 C 24.387 3, 25 2.550, 25 2 C 25 1.450, 23.377 1, 21.393 1 C 18.787 1, 17.929 1.372, 18.301 2.342 C 18.842 3.751, 10.505 15, 8.919 15 C 8.414 15, 8 12.300, 8 9 C 8 4.333, 8.333 3, 9.500 3 C 10.325 3, 11 2.550, 11 2 C 11 1.450, 8.750 1, 6 1 C 3.250 1, 1 1.450, 1 2 M 59.540 2.347 C 58.263 3.281, 58.051 3.913, 58.849 4.406 C 59.608 4.876, 60 8.995, 60 16.509 C 60 26.303, 59.755 28.044, 58.250 28.920 C 56.870 29.724, 57.441 29.946, 60.950 29.970 C 64.411 29.993, 65.133 29.733, 64.200 28.800 C 62.858 27.458, 62.547 22, 63.813 22 C 65.368 22, 70.214 27.844, 69.550 28.919 C 69.112 29.627, 70.306 30, 73.011 30 L 77.140 30 71.820 25.005 C 65.927 19.472, 65.891 19.775, 73.054 14.802 L 75.500 13.105 71.781 13.052 C 68.925 13.012, 68.192 13.337, 68.621 14.456 C 68.939 15.283, 67.955 17.116, 66.340 18.706 L 63.500 21.500 63.215 11.250 C 63.058 5.612, 62.582 1, 62.156 1 C 61.731 1, 60.553 1.606, 59.540 2.347 M 220.923 3.923 C 218.959 5.887, 218 7.856, 218 9.923 C 218 11.991, 217.508 13, 216.500 13 C 215.675 13, 215 13.450, 215 14 C 215 14.550, 215.675 15, 216.500 15 C 217.680 15, 218 16.392, 218 21.532 C 218 27.372, 217.761 28.160, 215.750 28.969 C 214.017 29.665, 214.764 29.861, 219 29.821 C 222.025 29.792, 223.713 29.562, 222.750 29.311 C 221.296 28.931, 221 27.683, 221 21.927 C 221 15.737, 221.206 15, 222.941 15 C 224.009 15, 225.160 14.550, 225.500 14 C 225.851 13.433, 225.010 13, 223.559 13 C 221.313 13, 221 12.582, 221 9.582 C 221 7.702, 221.273 5.452, 221.607 4.582 C 222.287 2.810, 226.529 2.428, 227.530 4.049 C 227.974 4.766, 228.620 4.731, 229.578 3.935 C 231.570 2.282, 230.384 1, 226.864 1 C 224.862 1, 222.862 1.984, 220.923 3.923 M 112.357 12.970 C 107.091 15.148, 105.093 24.093, 109 28 C 111.323 30.323, 116.716 30.659, 119.461 28.652 C 121.104 27.451, 120.827 27.316, 116.902 27.402 C 112.798 27.493, 112.380 27.255, 110.727 23.875 C 108.691 19.712, 109.548 15.848, 112.904 14.051 C 114.524 13.184, 115.295 13.400, 116.958 15.185 C 118.259 16.582, 119.360 17.040, 119.964 16.436 C 122.369 14.031, 116.385 11.304, 112.357 12.970 M 148.500 12.924 C 139.700 16.620, 141.464 30, 150.751 30 C 155.234 30, 160 25.431, 160 21.133 C 160 15.520, 153.450 10.844, 148.500 12.924 M 166.110 13.396 C 160.770 16.355, 159.669 22.265, 163.589 26.923 C 169.882 34.402, 181.682 26.888, 177.917 17.799 C 176.759 15.005, 172.475 11.962, 169.800 12.035 C 169.085 12.055, 167.425 12.667, 166.110 13.396 M 29 15 C 27.593 16.407, 27 18.333, 27 21.500 C 27 27.080, 29.524 30, 34.345 30 C 37.469 30, 42.091 26.758, 40.803 25.470 C 40.518 25.185, 39.716 25.638, 39.020 26.476 C 36.144 29.941, 30.349 27.103, 29.773 21.947 C 29.515 19.632, 29.811 19.484, 35.250 19.200 C 38.413 19.035, 41 18.573, 41 18.173 C 41 17.772, 40.299 16.445, 39.443 15.223 C 37.408 12.317, 31.802 12.198, 29 15 M 45.350 15.203 C 42.385 18.465, 41.671 22.464, 43.442 25.887 C 45.678 30.212, 51.601 31.511, 55.559 28.546 C 57.344 27.209, 57.196 27.139, 53.727 27.680 C 50.936 28.116, 49.455 27.817, 48.034 26.531 C 45.222 23.986, 44.497 19.417, 46.435 16.459 C 48.226 13.726, 51.749 13.181, 52.638 15.500 C 53.452 17.621, 56.223 17.403, 55.815 15.250 C 55.265 12.354, 47.969 12.321, 45.350 15.203 M 148 15 C 145.263 17.737, 145.239 25.001, 147.960 27.464 C 152.697 31.751, 158.263 25.356, 155.934 18.301 C 154.995 15.455, 152.509 13, 150.566 13 C 150.255 13, 149.100 13.900, 148 15 M 167.081 14.750 C 163.185 17.936, 164.240 27.520, 168.607 28.616 C 174.571 30.113, 177.680 19.866, 172.686 15.174 C 169.894 12.552, 169.780 12.543, 167.081 14.750 M 199.455 15.455 C 194.120 20.789, 197.863 30, 205.366 30 C 209.647 30, 214 25.401, 214 20.878 C 214 16.650, 210.062 13, 205.500 13 C 203.021 13, 201.149 13.760, 199.455 15.455 M 31.238 15.162 C 29.179 17.221, 29.820 18, 33.573 18 C 36.437 18, 37.080 17.652, 36.813 16.250 C 36.409 14.127, 32.948 13.452, 31.238 15.162 M 201.557 16.223 C 198.192 21.026, 200.720 29, 205.608 29 C 207.532 29, 208.450 28.167, 209.624 25.358 C 211.284 21.384, 210.872 18.015, 208.427 15.570 C 206.210 13.353, 203.378 13.622, 201.557 16.223 M 1 42.945 C 1 43.525, 1.900 44, 3 44 C 4.878 44, 5 44.667, 5 54.918 C 5 67.181, 4.599 69, 1.893 69 C 0.852 69, 0 69.450, 0 70 C 0 70.550, 2.502 71, 5.559 71 C 9.010 71, 10.884 70.621, 10.500 70 C 10.160 69.450, 9.234 69, 8.441 69 C 7.270 69, 7 66.846, 7 57.500 C 7 51.175, 7.171 46, 7.379 46 C 7.588 46, 9.948 51.400, 12.624 58 C 15.300 64.600, 17.746 70, 18.060 70 C 18.375 70, 19.696 67.412, 20.996 64.250 C 22.295 61.087, 24.853 55.363, 26.680 51.528 L 30 44.556 30 56.778 C 30 68.333, 29.891 69, 28 69 C 26.900 69, 26 69.450, 26 70 C 26 70.556, 28.667 71, 32 71 C 35.333 71, 38 70.556, 38 70 C 38 69.450, 37.100 69, 36 69 C 34.107 69, 34 68.333, 34 56.500 C 34 46.056, 34.247 44, 35.500 44 C 36.325 44, 37 43.550, 37 43 C 37 42.450, 35.308 42, 33.239 42 L 29.478 42 24.585 53.012 C 21.893 59.069, 19.518 63.851, 19.305 63.639 C 19.093 63.426, 16.952 58.583, 14.548 52.876 L 10.177 42.500 5.589 42.195 C 2.845 42.013, 1 42.314, 1 42.945 M 64.500 43 C 64.160 43.550, 64.359 44, 64.941 44 C 65.545 44, 66 46.148, 66 49 L 66 54 62.089 54 C 54.655 54, 50.510 62.565, 55.112 68.416 C 57.123 70.972, 57.562 71.078, 64.202 70.628 C 71.500 70.132, 73.407 69.477, 70.643 68.417 C 69.237 67.877, 69 65.930, 69 54.893 C 69 42.797, 68.880 42, 67.059 42 C 65.991 42, 64.840 42.450, 64.500 43 M 175.750 43.055 C 173.591 44.344, 171 49.195, 171 51.950 C 171 53.106, 170.345 54, 169.500 54 C 168.675 54, 168 54.450, 168 55 C 168 55.550, 168.675 56, 169.500 56 C 170.679 56, 171 57.389, 171 62.500 C 171 67.611, 170.679 69, 169.500 69 C 168.675 69, 168 69.450, 168 70 C 168 70.550, 170.277 71, 173.059 71 C 176.177 71, 177.881 70.616, 177.500 70 C 177.160 69.450, 176.234 69, 175.441 69 C 174.334 69, 174 67.493, 174 62.500 C 174 56.233, 174.090 56, 176.500 56 C 177.875 56, 179 55.550, 179 55 C 179 54.450, 177.875 54, 176.500 54 C 174.267 54, 174 53.590, 174 50.155 C 174 45.659, 177.191 41.791, 179.224 43.824 C 180.795 45.395, 184.278 45.339, 183.756 43.750 C 183.230 42.147, 178.028 41.695, 175.750 43.055 M 190 44 C 190 44.550, 190.675 45, 191.500 45 C 192.729 45, 193 46.728, 193 54.550 C 193 66.305, 194.311 69.414, 199.983 71.113 C 205.095 72.645, 209.618 71.391, 212.398 67.671 C 214.131 65.352, 214.560 63.118, 214.844 54.930 C 215.110 47.227, 215.503 45, 216.594 45 C 217.367 45, 218 44.550, 218 44 C 218 43.450, 215.975 43, 213.500 43 C 211.025 43, 209 43.450, 209 44 C 209 44.550, 209.675 45, 210.500 45 C 211.737 45, 212 46.825, 212 55.427 C 212 65.501, 211.911 65.925, 209.365 67.927 C 205.905 70.649, 203.453 70.544, 200.455 67.545 C 198.174 65.265, 198 64.378, 198 55.045 C 198 45.667, 198.133 45, 200 45 C 201.100 45, 202 44.550, 202 44 C 202 43.444, 199.333 43, 196 43 C 192.667 43, 190 43.444, 190 44 M 220.197 45.290 C 215.909 49.855, 217.708 54.805, 225 58.500 C 231.189 61.636, 232.756 64.197, 230.548 67.567 C 229.570 69.060, 227.997 70, 226.477 70 C 223.732 70, 220 66.831, 220 64.500 C 220 63.675, 219.550 63, 219 63 C 218.450 63, 218 64.575, 218 66.500 C 218 68.425, 218.338 69.927, 218.750 69.839 C 219.162 69.750, 220.845 70.230, 222.490 70.905 C 226.387 72.505, 231.545 71.487, 233.471 68.738 C 235.139 66.356, 235.490 60.322, 234.089 58.110 C 233.605 57.345, 230.799 55.545, 227.854 54.110 C 221.941 51.227, 220.258 47.747, 223.596 45.306 C 226.312 43.320, 227.924 43.707, 231.099 47.106 L 234 50.212 234 46.755 L 234 43.299 228.197 43.125 C 223.278 42.978, 222.060 43.307, 220.197 45.290 M 241.091 46.674 C 236.054 51.711, 235.020 56.997, 237.830 63.348 C 240.418 69.199, 244.004 71.500, 250.534 71.500 C 254.625 71.500, 256.408 70.926, 259.394 68.649 C 263.903 65.210, 263.552 64.083, 258.863 66.942 C 254.061 69.870, 249.702 69.599, 245.822 66.132 C 242.945 63.562, 242.568 62.579, 242.192 56.669 C 241.793 50.404, 241.924 49.923, 244.809 47.037 C 246.479 45.367, 248.803 44, 249.973 44 C 253.437 44, 257.853 46.815, 259.557 50.110 C 261.607 54.074, 262.157 53.418, 261.399 47.913 L 260.791 43.500 252.856 43.172 L 244.922 42.843 241.091 46.674 M 74.500 46 C 73.684 47.320, 74.777 49, 76.452 49 C 77.915 49, 79.219 46.552, 78.264 45.598 C 77.332 44.665, 75.183 44.895, 74.500 46 M 98.480 46.032 C 98.092 46.660, 98.245 47.645, 98.820 48.220 C 100.164 49.564, 103.297 48.392, 102.750 46.749 C 102.194 45.078, 99.364 44.602, 98.480 46.032 M 155.421 54.427 C 153.620 55.206, 151.809 57.047, 151.058 58.860 C 147.378 67.744, 157.648 75.079, 164.364 68.364 C 171.142 61.585, 164.130 50.658, 155.421 54.427 M 40 56 C 38.593 57.407, 38 59.333, 38 62.500 C 38 68.080, 40.524 71, 45.345 71 C 48.469 71, 53.091 67.758, 51.803 66.470 C 51.518 66.185, 50.716 66.638, 50.020 67.476 C 47.023 71.087, 41 67.879, 41 62.671 C 41 60.100, 41.206 60, 46.500 60 C 52.430 60, 52.825 59.622, 50.443 56.223 C 48.408 53.317, 42.802 53.198, 40 56 M 75.750 54.689 C 73.897 55.174, 73.304 57, 75 57 C 75.555 57, 76 59.650, 76 62.950 C 76 67.562, 75.606 69.130, 74.250 69.920 C 72.894 70.710, 73.626 70.939, 77.500 70.939 C 81.374 70.939, 82.106 70.710, 80.750 69.920 C 79.331 69.093, 79 67.491, 79 61.450 C 79 57.353, 78.662 54.052, 78.250 54.116 C 77.838 54.180, 76.713 54.438, 75.750 54.689 M 84.073 56.635 C 81.199 60.288, 81.313 66.006, 84.314 68.826 C 86.979 71.328, 91.707 71.672, 94.559 69.569 C 96.327 68.266, 96.134 68.187, 92.386 68.683 C 88.871 69.148, 88.034 68.887, 86.636 66.891 C 85.736 65.606, 85 62.945, 85 60.977 C 85 55.368, 88.420 53.260, 92.108 56.598 C 94.276 58.560, 96.694 57.542, 94.926 55.411 C 94.282 54.635, 92.043 54, 89.950 54 C 87.031 54, 85.663 54.613, 84.073 56.635 M 99.750 54.689 C 97.897 55.174, 97.304 57, 99 57 C 99.555 57, 100 59.650, 100 62.950 C 100 67.562, 99.606 69.130, 98.250 69.920 C 96.894 70.710, 97.626 70.939, 101.500 70.939 C 105.374 70.939, 106.106 70.710, 104.750 69.920 C 103.331 69.093, 103 67.491, 103 61.450 C 103 57.353, 102.662 54.052, 102.250 54.116 C 101.838 54.180, 100.713 54.438, 99.750 54.689 M 108.551 55.339 C 106.896 56.549, 106.878 56.739, 108.360 57.308 C 110.783 58.238, 110.693 68.497, 108.250 69.920 C 106.875 70.721, 107.465 70.939, 111 70.939 C 114.535 70.939, 115.125 70.721, 113.750 69.920 C 112.492 69.187, 112 67.631, 112 64.385 C 112 57.233, 114.903 53.807, 119.072 56.039 C 121.765 57.480, 121.905 68.374, 119.250 69.920 C 117.881 70.717, 118.479 70.929, 122 70.891 C 124.475 70.864, 125.938 70.615, 125.250 70.338 C 124.446 70.013, 124 67.701, 124 63.851 C 124 56.111, 122.856 54, 118.665 54 C 116.869 54, 114.804 54.563, 114.075 55.250 C 113.015 56.250, 112.658 56.250, 112.292 55.250 C 111.706 53.652, 110.830 53.673, 108.551 55.339 M 128.405 56.105 C 125.531 59.281, 125.788 66.600, 128.861 69.088 C 132.624 72.136, 138.136 71.482, 140.133 67.752 C 141.168 65.817, 141.120 65.802, 138.882 67.370 C 137.602 68.266, 135.755 69, 134.777 69 C 132.199 69, 129 65.401, 129 62.500 C 129 60.136, 129.300 60, 134.500 60 C 140.168 60, 140.822 59.404, 138.965 55.934 C 137.487 53.172, 130.963 53.278, 128.405 56.105 M 42.238 56.162 C 40.179 58.221, 40.820 59, 44.573 59 C 47.437 59, 48.080 58.652, 47.813 57.250 C 47.409 55.127, 43.948 54.452, 42.238 56.162 M 57.557 57.223 C 53.584 62.895, 58.526 71.929, 64 69 C 65.651 68.117, 66 66.906, 66 62.072 C 66 57.653, 65.611 56.065, 64.418 55.607 C 61.427 54.459, 59.110 55.004, 57.557 57.223 M 130 57 C 129.010 58.850, 129.240 59, 133.072 59 C 136.438 59, 137.100 58.704, 136.607 57.418 C 136.273 56.548, 136 55.648, 136 55.418 C 136 53.983, 130.894 55.329, 130 57 M 155.203 56.256 C 151.730 60.441, 153.294 68.534, 157.795 69.663 C 162.870 70.937, 166.063 62.390, 162.443 57.223 C 160.740 54.791, 156.850 54.271, 155.203 56.256 M 76.667 100.667 C 75.224 102.110, 76.042 105, 77.893 105 C 80.179 105, 81.276 102.676, 79.722 101.122 C 78.438 99.838, 77.618 99.716, 76.667 100.667 M 137.306 101.645 C 136.927 102.632, 137.368 103.796, 138.407 104.556 C 140.044 105.753, 140.040 105.878, 138.328 106.836 C 137.332 107.394, 136.872 108.205, 137.306 108.640 C 138.666 110, 141.485 107.425, 141.830 104.508 C 142.290 100.622, 138.596 98.284, 137.306 101.645 M 301.104 100.915 C 299.214 102.111, 300.532 105.237, 302.747 104.810 C 303.711 104.625, 304.500 103.616, 304.500 102.570 C 304.500 100.351, 303.086 99.662, 301.104 100.915 M 21 110.500 C 21 118.630, 21.285 120.285, 22.977 121.977 C 25.028 124.028, 28 123.746, 28 121.500 C 28 120.793, 27.325 119.955, 26.500 119.638 C 25.320 119.186, 25 117.137, 25 110.031 C 25 101.667, 24.852 101, 23 101 C 21.140 101, 21 101.667, 21 110.500 M 44 112 C 44 122.333, 44.121 123, 46 123 C 47.778 123, 48 122.333, 48 117 C 48 111.267, 48.111 111, 50.500 111 C 52.889 111, 53 111.267, 53 117 C 53 122.333, 53.222 123, 55 123 C 56.793 123, 57 122.333, 57 116.571 C 57 107.814, 55.085 105.867, 48.971 108.409 C 47.716 108.931, 47.511 108.327, 47.827 105.022 C 48.164 101.478, 47.960 101, 46.105 101 C 44.093 101, 44 101.484, 44 112 M 179 112 C 179 121.111, 179.258 123, 180.500 123 C 181.542 123, 182 121.952, 182 119.565 C 182 114.477, 183.614 111, 185.975 111 C 187.783 111, 188 111.642, 188 117 C 188 122.333, 188.222 123, 190 123 C 191.793 123, 192 122.333, 192 116.571 C 192 107.805, 189.287 105.009, 184.223 108.557 C 182.023 110.097, 182 110.066, 182 105.557 C 182 102.173, 181.614 101, 180.500 101 C 179.258 101, 179 102.889, 179 112 M 7.618 103.808 C 6.838 105.071, 1 121.286, 1 122.191 C 1 123.938, 4.797 122.884, 5.290 121 C 5.708 119.402, 6.654 119, 10 119 C 13.346 119, 14.292 119.402, 14.710 121 C 15.043 122.273, 16.074 123, 17.547 123 L 19.860 123 16.888 114.855 C 15.253 110.375, 13.468 105.875, 12.922 104.855 C 11.920 102.982, 8.541 102.315, 7.618 103.808 M 162 105 C 162 106.467, 162.667 107, 164.500 107 C 166.958 107, 167 107.133, 167 115 C 167 122.333, 167.167 123, 169 123 C 170.833 123, 171 122.333, 171 115 L 171 107 174 107 C 176.333 107, 177 106.556, 177 105 C 177 103.178, 176.333 103, 169.500 103 C 162.667 103, 162 103.178, 162 105 M 289.290 106 C 289.002 107.100, 288.369 108, 287.883 108 C 287.398 108, 287 108.675, 287 109.500 C 287 110.325, 287.450 111, 288 111 C 288.550 111, 289 113.025, 289 115.500 C 289 121.974, 292.353 125.108, 297.213 123.179 C 299.292 122.355, 298.272 120.376, 295.500 119.857 C 293.936 119.564, 293.433 118.557, 293.193 115.241 C 292.905 111.278, 293.053 111, 295.443 111 C 297.049 111, 298 110.442, 298 109.500 C 298 108.644, 297.101 108, 295.906 108 C 294.654 108, 293.603 107.197, 293.290 106 C 293.002 104.900, 292.102 104, 291.290 104 C 290.477 104, 289.577 104.900, 289.290 106 M 63.500 108.195 C 60.589 109.846, 60.032 111.028, 60.015 115.595 C 59.997 120.506, 62.571 123.333, 67.061 123.333 C 70.820 123.333, 74.262 120.399, 72.082 119.051 C 71.185 118.497, 69.848 118.709, 68.445 119.628 C 66.482 120.914, 66.039 120.896, 64.613 119.470 C 61.951 116.809, 62.741 116, 68 116 C 72.867 116, 73 115.922, 73 113.057 C 73 108.258, 67.948 105.673, 63.500 108.195 M 89.223 108.557 C 87.977 109.429, 87 109.649, 87 109.057 C 87 108.476, 86.325 108, 85.500 108 C 84.300 108, 84 109.500, 84 115.500 C 84 122.269, 84.190 123, 85.950 123 C 87.623 123, 87.943 122.182, 88.200 117.250 C 88.460 112.267, 88.767 111.500, 90.500 111.500 C 92.233 111.500, 92.540 112.267, 92.800 117.250 C 93.054 122.127, 93.388 123, 95 123 C 96.612 123, 96.946 122.127, 97.200 117.250 C 97.466 112.156, 97.757 111.464, 99.750 111.180 C 101.871 110.879, 102 111.208, 102 116.930 C 102 122.333, 102.220 123, 104 123 C 105.793 123, 106 122.333, 106 116.571 C 106 108.011, 103.193 104.945, 98.498 108.378 C 96.897 109.549, 96.406 109.549, 95.235 108.378 C 93.451 106.594, 91.962 106.638, 89.223 108.557 M 111.635 109.073 C 108.224 111.755, 107.878 118.675, 111.013 121.512 C 113.545 123.803, 118.565 123.864, 120.798 121.631 C 122.284 120.143, 122.311 119.811, 121.008 119.005 C 120.088 118.437, 119.150 118.450, 118.558 119.042 C 116.955 120.645, 114.132 120.116, 113 118 C 111.996 116.123, 112.240 116, 116.965 116 C 121.871 116, 122 115.925, 122 113.057 C 122 111.149, 121.218 109.566, 119.777 108.557 C 116.796 106.468, 114.783 106.596, 111.635 109.073 M 131 109 C 129.444 110.556, 129 110.667, 129 109.500 C 129 108.667, 128.111 108, 127 108 C 125.178 108, 125 108.667, 125 115.500 C 125 122.333, 125.178 123, 127 123 C 128.660 123, 129 122.333, 129 119.082 C 129 113.633, 129.832 112, 132.607 112 C 134.493 112, 135 111.470, 135 109.500 C 135 106.481, 133.684 106.316, 131 109 M 144.223 108.557 C 143 109.413, 142 110.918, 142 111.902 C 142 114.039, 144.728 116.652, 147.489 117.158 C 150.230 117.661, 150.790 121, 148.132 121 C 147.024 121, 145.840 120.550, 145.500 120 C 144.538 118.444, 142 118.824, 142 120.525 C 142 122.923, 146.718 124.248, 150.644 122.952 C 153.461 122.023, 154 121.363, 154 118.842 C 154 116.267, 153.430 115.615, 150 114.268 C 147.800 113.404, 146 112.341, 146 111.907 C 146 110.439, 148.167 109.767, 149.287 110.887 C 150.915 112.515, 154 112.246, 154 110.475 C 154 109.032, 150.291 107, 147.657 107 C 146.991 107, 145.445 107.701, 144.223 108.557 M 197.635 109.073 C 195.523 110.734, 195 111.993, 195 115.418 C 195 120.515, 197.514 123.333, 202.061 123.333 C 205.893 123.333, 209.264 120.400, 207.023 119.014 C 206.019 118.394, 204.947 118.643, 203.677 119.792 C 201.910 121.391, 201.700 121.348, 199.785 118.991 L 197.760 116.500 202.880 116.198 C 207.790 115.908, 208 115.777, 208 113.004 C 208 111.151, 207.203 109.555, 205.777 108.557 C 202.796 106.468, 200.783 106.596, 197.635 109.073 M 217 109 C 215.444 110.556, 215 110.667, 215 109.500 C 215 108.667, 214.111 108, 213 108 C 211.178 108, 211 108.667, 211 115.500 C 211 122.333, 211.178 123, 213 123 C 214.660 123, 215 122.333, 215 119.082 C 215 113.633, 215.832 112, 218.607 112 C 220.493 112, 221 111.470, 221 109.500 C 221 106.481, 219.684 106.316, 217 109 M 225.389 107.980 C 222.231 109.256, 221.509 112, 224.331 112 C 225.579 112, 227.101 111.499, 227.713 110.887 C 229.010 109.590, 231 110.527, 231 112.434 C 231 113.158, 229.580 114.034, 227.845 114.381 C 223.673 115.215, 222 116.725, 222 119.655 C 222 122.436, 225.363 124.167, 228.500 123.001 C 229.600 122.592, 231.963 122.475, 233.750 122.742 C 236.274 123.119, 237 122.867, 237 121.613 C 237 120.726, 236.550 120, 236 120 C 235.450 120, 235 117.975, 235 115.500 C 235 108.612, 231.194 105.634, 225.389 107.980 M 244.250 108.522 C 243.007 109.401, 242 109.641, 242 109.057 C 242 108.476, 241.325 108, 240.500 108 C 239.258 108, 239 109.889, 239 119 C 239 129.333, 239.121 130, 241 130 C 242.670 130, 243 129.333, 243 125.965 C 243 122.227, 243.149 122.009, 245.019 123.010 C 251.104 126.267, 256.574 115.916, 252.249 109.329 C 250.888 107.257, 246.645 106.828, 244.250 108.522 M 258.635 109.073 C 256.523 110.734, 256 111.993, 256 115.418 C 256 120.515, 258.514 123.333, 263.061 123.333 C 266.893 123.333, 270.264 120.400, 268.023 119.014 C 267.026 118.398, 265.969 118.623, 264.773 119.706 C 263.142 121.182, 262.840 121.165, 261 119.500 C 257.934 116.726, 258.557 116, 264 116 C 268.867 116, 269 115.922, 269 113.057 C 269 111.149, 268.218 109.566, 266.777 108.557 C 263.796 106.468, 261.783 106.596, 258.635 109.073 M 311.736 107.692 C 309.876 108.177, 307 112.860, 307 115.403 C 307 118.495, 309.370 121.933, 312.175 122.911 C 315.472 124.060, 319.415 122.967, 320.300 120.659 C 321.098 118.582, 318.173 117.684, 316.397 119.460 C 314.510 121.347, 312.138 120.398, 311.401 117.462 C 310.171 112.560, 313.488 108.631, 316.400 111.542 C 317.201 112.344, 318.313 113, 318.870 113 C 320.929 113, 321.013 111.013, 319.036 109.036 C 317.056 107.056, 315.367 106.745, 311.736 107.692 M 8.986 109.250 C 8.979 109.938, 8.701 111.513, 8.370 112.750 C 7.864 114.638, 8.163 115, 10.234 115 C 12.596 115, 12.655 114.850, 11.606 111.500 C 10.534 108.075, 9.013 106.769, 8.986 109.250 M 29 109.500 C 29 110.547, 30.055 111, 32.498 111 L 35.997 111 32.498 115.869 C 30.574 118.548, 29 121.248, 29 121.869 C 29 122.585, 31.205 123, 35 123 C 39.667 123, 41 122.667, 41 121.500 C 41 120.446, 39.935 120, 37.415 120 L 33.830 120 37.415 115.116 C 39.387 112.430, 41 109.730, 41 109.116 C 41 108.419, 38.749 108, 35 108 C 30.333 108, 29 108.333, 29 109.500 M 76 115.500 C 76 122.333, 76.178 123, 78 123 C 79.822 123, 80 122.333, 80 115.500 C 80 108.667, 79.822 108, 78 108 C 76.178 108, 76 108.667, 76 115.500 M 272.015 114.250 C 272.024 117.688, 272.361 120.983, 272.765 121.573 C 274.185 123.646, 277.259 124.060, 279.641 122.500 C 280.938 121.649, 282 121.414, 282 121.977 C 282 122.540, 282.675 123, 283.500 123 C 284.700 123, 285 121.500, 285 115.500 C 285 108.667, 284.822 108, 283 108 C 281.248 108, 281 108.667, 281 113.378 C 281 116.866, 280.488 119.180, 279.544 119.964 C 277.088 122.001, 276 120.152, 276 113.941 C 276 108.667, 275.776 108, 274 108 C 272.212 108, 272.002 108.662, 272.015 114.250 M 301 115.500 C 301 122.333, 301.178 123, 303 123 C 304.822 123, 305 122.333, 305 115.500 C 305 108.667, 304.822 108, 303 108 C 301.178 108, 301 108.667, 301 115.500 M 64.667 110.667 C 63.200 112.133, 64.133 114, 66.333 114 C 69.343 114, 70.269 113.029, 68.869 111.342 C 67.671 109.899, 65.744 109.589, 64.667 110.667 M 114.250 110.662 C 111.733 111.678, 112.950 114, 116 114 C 119.196 114, 119.745 113.145, 117.800 111.200 C 116.521 109.921, 116.205 109.873, 114.250 110.662 M 200.250 110.662 C 197.733 111.678, 198.950 114, 202 114 C 205.196 114, 205.745 113.145, 203.800 111.200 C 202.521 109.921, 202.205 109.873, 200.250 110.662 M 244.690 111.154 C 242.619 112.313, 242.403 118.260, 244.373 119.895 C 247.413 122.418, 250.795 118.304, 249.599 113.538 C 248.905 110.775, 247.011 109.855, 244.690 111.154 M 261.250 110.662 C 259.071 111.541, 259.869 114, 262.333 114 C 265.343 114, 266.269 113.029, 264.869 111.342 C 263.695 109.928, 263.269 109.848, 261.250 110.662 M 227.750 116.746 C 225.800 117.192, 225.402 119.513, 227.096 120.559 C 228.560 121.464, 231.723 118.284, 230.457 117.180 C 229.931 116.721, 228.713 116.526, 227.750 116.746 M 108 145 C 108 155.240, 108.135 156, 109.950 156 C 111.623 156, 111.943 155.182, 112.200 150.250 C 112.466 145.156, 112.757 144.464, 114.750 144.180 C 116.871 143.879, 117 144.208, 117 149.930 C 117 155.377, 117.210 156, 119.044 156 C 120.941 156, 121.067 155.481, 120.794 148.750 C 120.505 141.628, 120.450 141.494, 117.690 141.178 C 116.144 141.001, 114.231 141.393, 113.440 142.050 C 112.222 143.061, 112 142.532, 112 138.622 C 112 134.667, 111.712 134, 110 134 C 108.121 134, 108 134.667, 108 145 M 182.500 135 C 181.577 136.494, 182.861 138, 185.059 138 C 186.333 138, 187 137.313, 187 136 C 187 133.879, 183.653 133.135, 182.500 135 M 3 146.500 C 3 155.333, 3.140 156, 5 156 C 6.626 156, 7 155.333, 7 152.430 C 7 149.315, 7.282 148.902, 9.217 149.180 C 10.736 149.399, 11.725 150.523, 12.361 152.750 C 13.063 155.207, 13.851 156, 15.593 156 C 17.749 156, 17.826 155.792, 16.803 152.750 C 16.202 150.963, 15.320 148.997, 14.843 148.383 C 14.314 147.702, 14.566 146.775, 15.488 146.010 C 17.673 144.196, 17.414 139.292, 15.066 138.035 C 14.002 137.466, 10.852 137, 8.066 137 L 3 137 3 146.500 M 132 146.500 C 132 155.333, 132.140 156, 134 156 C 135.860 156, 136 155.333, 136 146.500 C 136 137.667, 135.860 137, 134 137 C 132.140 137, 132 137.667, 132 146.500 M 171.290 139 C 171.002 140.100, 170.369 141, 169.883 141 C 169.398 141, 169 141.675, 169 142.500 C 169 143.325, 169.450 144, 170 144 C 170.550 144, 171 146.218, 171 148.929 C 171 152.076, 171.568 154.425, 172.571 155.429 C 175.225 158.082, 181.840 156.978, 180.106 154.171 C 179.672 153.469, 178.908 152.971, 178.408 153.066 C 175.627 153.590, 175 152.750, 175 148.500 C 175 144.367, 175.204 144, 177.500 144 C 179.056 144, 180 143.433, 180 142.500 C 180 141.567, 179.056 141, 177.500 141 C 175.667 141, 175 140.467, 175 139 C 175 137.837, 174.333 137, 173.406 137 C 172.530 137, 171.577 137.900, 171.290 139 M 191.290 139 C 191.002 140.100, 190.144 141, 189.383 141 C 188.623 141, 188 141.675, 188 142.500 C 188 143.325, 188.675 144, 189.500 144 C 190.650 144, 191 145.274, 191 149.465 C 191 153.987, 191.361 155.123, 193.093 156.050 C 195.593 157.388, 200.321 156.433, 199.713 154.713 C 199.478 154.046, 198.516 153.568, 197.575 153.650 C 195.358 153.845, 193.567 149.862, 194.392 146.574 C 194.814 144.892, 195.725 144, 197.019 144 C 198.113 144, 199 143.329, 199 142.500 C 199 141.667, 198.111 141, 197 141 C 195.667 141, 195 140.333, 195 139 C 195 137.837, 194.333 137, 193.406 137 C 192.530 137, 191.577 137.900, 191.290 139 M 219.290 139 C 219.002 140.100, 218.369 141, 217.883 141 C 217.398 141, 217 141.675, 217 142.500 C 217 143.325, 217.450 144, 218 144 C 218.550 144, 219 146.218, 219 148.929 C 219 152.146, 219.565 154.422, 220.626 155.483 C 222.737 157.594, 227.373 157.082, 227.827 154.687 C 228.031 153.613, 227.626 152.947, 226.836 153.055 C 223.513 153.508, 223 152.898, 223 148.500 C 223 144.367, 223.204 144, 225.500 144 C 227.056 144, 228 143.433, 228 142.500 C 228 141.567, 227.056 141, 225.500 141 C 223.667 141, 223 140.467, 223 139 C 223 137.837, 222.333 137, 221.406 137 C 220.530 137, 219.577 137.900, 219.290 139 M 7 143 C 7 145.828, 7.268 146.102, 9.750 145.816 C 11.932 145.565, 12.500 144.984, 12.500 143 C 12.500 141.016, 11.932 140.435, 9.750 140.184 C 7.268 139.898, 7 140.172, 7 143 M 21.655 142.829 C 19.820 144.857, 19.448 151.101, 20.992 153.984 C 23.004 157.744, 33 157.265, 33 153.408 C 33 151.793, 31.849 151.801, 27.879 153.444 C 26.072 154.192, 22.638 151.395, 23.550 149.919 C 23.862 149.414, 26.116 149, 28.559 149 C 32.380 149, 33 148.712, 33 146.934 C 33 145.798, 32.534 143.998, 31.965 142.934 C 30.573 140.333, 23.974 140.266, 21.655 142.829 M 35.980 143.038 C 34.299 146.178, 35.652 148.560, 40.109 150.311 C 42.421 151.219, 43.896 152.359, 43.528 152.954 C 42.657 154.364, 39.678 154.278, 38.200 152.800 C 37.267 151.867, 36.722 151.882, 35.750 152.867 C 34.112 154.529, 37.251 157, 41 157 C 45.001 157, 47.226 154.883, 46.836 151.451 C 46.567 149.091, 45.808 148.276, 43.044 147.383 C 37.846 145.703, 37.728 143.609, 42.881 144.480 C 45.146 144.863, 47 144.776, 47 144.288 C 47 140.646, 37.817 139.605, 35.980 143.038 M 51.625 142.285 C 50.658 142.992, 49.618 145.433, 49.312 147.709 C 48.839 151.234, 49.139 152.230, 51.333 154.424 C 54.288 157.379, 57.545 157.707, 60.862 155.384 C 64.066 153.140, 62.094 151.077, 58.554 152.971 C 56.538 154.050, 55.779 154.061, 54.534 153.028 C 51.462 150.478, 52.734 149, 58 149 C 63.544 149, 64.439 147.499, 61.443 143.223 C 59.665 140.683, 54.491 140.189, 51.625 142.285 M 65.937 142.576 C 64.853 143.883, 64.874 144.308, 66.064 145.061 C 67.952 146.255, 69 146.234, 69 145 C 69 144.450, 69.900 144, 71 144 C 72.333 144, 73 144.667, 73 146 C 73 147.524, 72.333 148, 70.200 148 C 66.841 148, 65 149.621, 65 152.578 C 65 155.912, 67.604 157.588, 70.869 156.355 C 72.673 155.675, 74.321 155.664, 75.799 156.323 C 78.629 157.586, 79.774 156.469, 78.212 153.968 C 77.545 152.901, 77 150.086, 77 147.714 C 77 145.341, 76.460 142.860, 75.800 142.200 C 74.057 140.457, 67.487 140.708, 65.937 142.576 M 82 148.500 C 82 154.500, 82.300 156, 83.500 156 C 84.493 156, 85 155.007, 85 153.065 C 85 148.560, 86.703 145, 88.859 145 C 89.926 145, 90.997 144.118, 91.290 143 C 91.946 140.492, 89.433 140.298, 86.829 142.655 C 85.127 144.195, 85 144.195, 85 142.655 C 85 141.745, 84.325 141, 83.500 141 C 82.300 141, 82 142.500, 82 148.500 M 94.057 142.943 C 91.126 145.874, 91.315 151.406, 94.455 154.545 C 97.490 157.581, 101.309 157.691, 104.175 154.825 C 106.281 152.719, 106.289 152.627, 104.426 151.974 C 103.195 151.542, 102.072 151.876, 101.309 152.900 C 99.429 155.423, 96.563 153.040, 96.189 148.641 C 95.823 144.331, 97.788 143.014, 101.566 145.035 C 104.427 146.566, 105.876 145.617, 104.363 143.202 C 102.731 140.596, 96.559 140.441, 94.057 142.943 M 140 148.500 C 140 155.269, 140.190 156, 141.950 156 C 143.622 156, 143.943 155.182, 144.200 150.260 C 144.445 145.571, 144.844 144.454, 146.380 144.161 C 148.960 143.670, 149.967 145.650, 149.985 151.250 C 149.998 155.328, 150.283 156, 152 156 C 153.730 156, 154 155.333, 154 151.065 C 154 143.826, 152.659 141, 149.225 141 C 147.671 141, 145.860 141.540, 145.200 142.200 C 144.267 143.133, 144 143.133, 144 142.200 C 144 141.540, 143.100 141, 142 141 C 140.178 141, 140 141.667, 140 148.500 M 157.011 142.487 C 154.828 145.117, 156.607 148.542, 161.066 150.294 C 163.405 151.213, 164.896 152.358, 164.528 152.954 C 163.657 154.364, 160.678 154.278, 159.200 152.800 C 158.267 151.867, 157.722 151.882, 156.750 152.867 C 155.112 154.529, 158.251 157, 162 157 C 166.001 157, 168.226 154.883, 167.836 151.451 C 167.567 149.091, 166.808 148.276, 164.044 147.383 C 158.846 145.703, 158.728 143.609, 163.881 144.480 C 168.031 145.181, 169.013 144.413, 166.800 142.200 C 165.109 140.509, 158.491 140.703, 157.011 142.487 M 183 148.500 C 183 155.333, 183.178 156, 185 156 C 186.822 156, 187 155.333, 187 148.500 C 187 141.667, 186.822 141, 185 141 C 183.178 141, 183 141.667, 183 148.500 M 202 147.878 C 202 156.101, 203.402 158.042, 208.070 156.280 C 209.670 155.676, 211.884 155.418, 212.989 155.707 C 214.874 156.200, 215 155.754, 215 148.617 C 215 141.667, 214.825 141, 213 141 C 211.248 141, 211 141.667, 211 146.378 C 211 149.866, 210.488 152.180, 209.544 152.964 C 207.088 155.001, 206 153.152, 206 146.941 C 206 141.667, 205.776 141, 204 141 C 202.194 141, 202 141.667, 202 147.878 M 231.428 143.080 C 228.639 146.161, 228.886 152.680, 231.884 155.107 C 234.724 157.407, 237.808 157.523, 240.777 155.443 C 244.839 152.598, 242.341 150.521, 238.068 153.190 C 236.573 154.123, 235.821 154.097, 234.581 153.067 C 231.463 150.480, 232.707 149, 238 149 C 242.579 149, 243 148.802, 243 146.655 C 243 141.409, 235.138 138.980, 231.428 143.080 M 24.667 144.667 C 23.237 146.096, 24.129 147, 26.969 147 C 29.197 147, 29.794 146.626, 29.362 145.500 C 28.775 143.972, 25.876 143.458, 24.667 144.667 M 53.709 144.624 C 52.223 146.110, 53.112 147, 56.083 147 C 58.103 147, 59.025 146.569, 58.755 145.750 C 58.288 144.332, 54.783 143.550, 53.709 144.624 M 233.638 145.500 C 233.206 146.626, 233.803 147, 236.031 147 C 238.003 147, 239 146.496, 239 145.500 C 239 144.585, 238.067 144, 236.607 144 C 235.291 144, 233.955 144.675, 233.638 145.500 M 68.624 151.538 C 67.980 153.216, 70.255 154.578, 71.952 153.530 C 72.528 153.173, 73 152.234, 73 151.441 C 73 149.512, 69.371 149.592, 68.624 151.538" stroke="none" fill="#a41133" fill-rule="evenodd"/><path d="M 0 34.500 C 0 67.683, 0.072 69, 1.893 69 C 4.599 69, 5 67.181, 5 54.918 C 5 44.667, 4.878 44, 3 44 C 1.900 44, 1 43.525, 1 42.945 C 1 42.314, 2.845 42.013, 5.589 42.195 L 10.177 42.500 14.548 52.876 C 16.952 58.583, 19.093 63.426, 19.305 63.639 C 19.518 63.851, 21.893 59.069, 24.585 53.012 L 29.478 42 33.239 42 C 35.308 42, 37 42.450, 37 43 C 37 43.550, 36.325 44, 35.500 44 C 34.247 44, 34 46.056, 34 56.500 C 34 68.333, 34.107 69, 36 69 C 37.100 69, 38 69.450, 38 70 C 38 70.556, 35.333 71, 32 71 C 28.667 71, 26 70.556, 26 70 C 26 69.450, 26.900 69, 28 69 C 29.891 69, 30 68.333, 30 56.778 L 30 44.556 26.680 51.528 C 24.853 55.363, 22.295 61.087, 20.996 64.250 C 19.696 67.412, 18.375 70, 18.060 70 C 17.746 70, 15.300 64.600, 12.624 58 C 9.948 51.400, 7.588 46, 7.379 46 C 7.171 46, 7 51.123, 7 57.383 C 7 68.285, 7.095 68.801, 9.250 69.565 C 10.958 70.171, 10.115 70.452, 5.750 70.732 L 0 71.100 0 114.050 L 0 157 12.750 156.921 C 19.762 156.878, 24.825 156.601, 24 156.306 C 21.346 155.357, 20 152.719, 20 148.464 C 20 143.334, 22.280 141, 27.294 141 C 31.148 141, 33 142.926, 33 146.934 C 33 148.712, 32.380 149, 28.559 149 C 26.116 149, 23.862 149.414, 23.550 149.919 C 22.638 151.395, 26.072 154.192, 27.879 153.444 C 28.771 153.075, 30.287 152.547, 31.250 152.270 C 33.904 151.507, 33.447 154.885, 30.750 155.969 C 28.940 156.696, 29.467 156.886, 33.441 156.937 C 37.960 156.995, 38.216 156.878, 36.441 155.567 C 34.885 154.419, 34.748 153.883, 35.750 152.867 C 36.722 151.882, 37.267 151.867, 38.200 152.800 C 39.678 154.278, 42.657 154.364, 43.528 152.954 C 43.896 152.359, 42.421 151.219, 40.109 150.311 C 35.652 148.560, 34.299 146.178, 35.980 143.038 C 37.817 139.605, 47 140.646, 47 144.288 C 47 144.776, 45.146 144.863, 42.881 144.480 C 37.728 143.609, 37.846 145.703, 43.044 147.383 C 45.808 148.276, 46.567 149.091, 46.836 151.451 C 47.059 153.414, 46.577 154.836, 45.395 155.701 C 43.853 156.828, 44.298 157, 48.763 157 L 53.909 157 51.333 154.424 C 49.139 152.230, 48.839 151.234, 49.312 147.709 C 49.954 142.922, 52.052 141, 56.634 141 C 60.085 141, 63 143.850, 63 147.223 C 63 148.689, 62.125 149, 58 149 C 52.734 149, 51.462 150.478, 54.534 153.028 C 55.779 154.061, 56.538 154.050, 58.554 152.971 C 62.094 151.077, 64.066 153.140, 60.862 155.384 C 58.589 156.976, 58.620 157, 62.977 157 C 66.417 157, 67.133 156.733, 66.200 155.800 C 64.657 154.257, 64.657 150.743, 66.200 149.200 C 66.860 148.540, 68.660 148, 70.200 148 C 72.333 148, 73 147.524, 73 146 C 73 144.667, 72.333 144, 71 144 C 69.900 144, 69 144.450, 69 145 C 69 146.234, 67.952 146.255, 66.064 145.061 C 63.646 143.531, 66.674 141, 70.922 141 C 75.654 141, 77 142.439, 77 147.501 C 77 149.756, 77.562 152.812, 78.250 154.293 C 79.466 156.912, 79.734 156.985, 88.205 156.992 L 96.909 157 94.455 154.545 C 91.315 151.406, 91.126 145.874, 94.057 142.943 C 96.559 140.441, 102.731 140.596, 104.363 143.202 C 105.876 145.617, 104.427 146.566, 101.566 145.035 C 97.788 143.014, 95.823 144.331, 96.189 148.641 C 96.563 153.040, 99.429 155.423, 101.309 152.900 C 102.072 151.876, 103.195 151.542, 104.426 151.974 C 106.289 152.627, 106.281 152.719, 104.175 154.825 L 102 157 130.691 157 C 155.832 157, 159.142 156.823, 157.441 155.567 C 155.885 154.419, 155.748 153.883, 156.750 152.867 C 157.722 151.882, 158.267 151.867, 159.200 152.800 C 160.678 154.278, 163.657 154.364, 164.528 152.954 C 164.896 152.358, 163.405 151.213, 161.066 150.294 C 156.607 148.542, 154.828 145.117, 157.011 142.487 C 158.491 140.703, 165.109 140.509, 166.800 142.200 C 169.013 144.413, 168.031 145.181, 163.881 144.480 C 158.728 143.609, 158.846 145.703, 164.044 147.383 C 166.808 148.276, 167.567 149.091, 167.836 151.451 C 168.059 153.414, 167.577 154.836, 166.395 155.701 C 164.846 156.833, 165.229 157, 169.380 157 C 173.710 157, 174 156.857, 172.571 155.429 C 171.568 154.425, 171 152.076, 171 148.929 C 171 146.218, 170.550 144, 170 144 C 169.450 144, 169 143.325, 169 142.500 C 169 141.675, 169.398 141, 169.883 141 C 170.369 141, 171.002 140.100, 171.290 139 C 171.976 136.378, 175 136.378, 175 139 C 175 140.467, 175.667 141, 177.500 141 C 179.056 141, 180 141.567, 180 142.500 C 180 143.433, 179.056 144, 177.500 144 C 175.204 144, 175 144.367, 175 148.500 C 175 152.750, 175.627 153.590, 178.408 153.066 C 179.923 152.780, 180.991 155.386, 179.697 156.208 C 179.039 156.627, 182.100 156.963, 186.500 156.954 C 192.418 156.943, 194.044 156.674, 192.750 155.920 C 191.422 155.146, 191 153.586, 191 149.450 C 191 145.272, 190.650 144, 189.500 144 C 188.675 144, 188 143.325, 188 142.500 C 188 141.675, 188.623 141, 189.383 141 C 190.144 141, 191.002 140.100, 191.290 139 C 191.577 137.900, 192.530 137, 193.406 137 C 194.333 137, 195 137.837, 195 139 C 195 140.333, 195.667 141, 197 141 C 198.111 141, 199 141.667, 199 142.500 C 199 143.329, 198.113 144, 197.019 144 C 195.725 144, 194.814 144.892, 194.392 146.574 C 193.570 149.851, 195.442 154.152, 197.368 153.412 C 199.301 152.671, 200.610 154.999, 198.878 156.096 C 197.937 156.692, 198.595 156.974, 200.950 156.985 C 203.633 156.997, 204.133 156.733, 203.200 155.800 C 202.502 155.102, 202 151.756, 202 147.800 C 202 141.667, 202.196 141, 204 141 C 205.776 141, 206 141.667, 206 146.941 C 206 153.152, 207.088 155.001, 209.544 152.964 C 210.488 152.180, 211 149.866, 211 146.378 C 211 141.667, 211.248 141, 213 141 C 214.825 141, 215 141.667, 215 148.608 C 215 156.008, 214.938 156.201, 212.742 155.650 C 211.500 155.338, 209.812 155.508, 208.992 156.026 C 207.977 156.668, 209.842 156.974, 214.821 156.985 C 221.477 156.999, 222 156.857, 220.571 155.429 C 219.568 154.425, 219 152.076, 219 148.929 C 219 146.218, 218.550 144, 218 144 C 217.450 144, 217 143.325, 217 142.500 C 217 141.675, 217.398 141, 217.883 141 C 218.369 141, 219.002 140.100, 219.290 139 C 219.976 136.378, 223 136.378, 223 139 C 223 140.467, 223.667 141, 225.500 141 C 227.056 141, 228 141.567, 228 142.500 C 228 143.433, 227.056 144, 225.500 144 C 223.204 144, 223 144.367, 223 148.500 C 223 152.914, 223.513 153.514, 226.886 153.043 C 227.826 152.912, 228.098 153.518, 227.730 154.925 C 227.257 156.735, 227.637 157, 230.704 157 L 234.222 157 231.884 155.107 C 228.886 152.680, 228.639 146.161, 231.428 143.080 C 235.218 138.892, 243 141.413, 243 146.829 C 243 148.768, 242.465 149, 238 149 C 232.707 149, 231.463 150.480, 234.581 153.067 C 235.821 154.097, 236.573 154.123, 238.068 153.190 C 242.353 150.513, 244.836 152.601, 240.761 155.455 C 238.715 156.888, 242.093 157, 280.011 156.761 L 321.500 156.500 321.743 78.250 L 321.987 0 253.493 0 L 185 0 185 13.950 C 185 26.181, 185.216 28.026, 186.750 28.920 C 188.087 29.699, 187.203 29.931, 183 29.906 C 178.708 29.880, 177.994 29.675, 179.750 28.969 C 181.891 28.108, 182 27.536, 182 17.104 C 182 8.611, 181.656 5.799, 180.474 4.617 C 179.106 3.249, 179.236 2.935, 181.724 1.586 C 184.253 0.214, 181.983 0.077, 156.250 0.040 L 128 0 128 7.557 L 128 15.113 130.223 13.557 C 133.272 11.421, 134.685 11.594, 137.545 14.455 C 139.539 16.448, 140 17.912, 140 22.255 C 140 25.195, 140.540 28.140, 141.200 28.800 C 142.133 29.733, 141.411 29.993, 137.950 29.970 C 134.441 29.946, 133.870 29.724, 135.250 28.920 C 137.597 27.553, 137.727 17.869, 135.429 15.571 C 133.586 13.729, 132.562 13.629, 129.934 15.035 C 127.235 16.480, 127.091 27.371, 129.750 28.920 C 131.106 29.710, 130.374 29.939, 126.500 29.939 C 122.626 29.939, 121.894 29.710, 123.250 28.920 C 124.755 28.043, 125 26.303, 125 16.500 C 125 6.905, 124.736 4.952, 123.335 4.168 C 121.897 3.363, 122.067 3.022, 124.585 1.658 C 127.344 0.165, 126.696 0.086, 112.500 0.190 C 104.250 0.250, 98.737 0.487, 100.250 0.716 C 102.678 1.084, 103 1.564, 102.996 4.816 L 102.993 8.500 101.011 5.250 C 99.386 2.586, 98.402 2, 95.550 2 C 93.072 2, 91.756 2.587, 90.980 4.038 C 89.145 7.466, 90.822 10.031, 96.555 12.567 C 103.691 15.723, 105.690 18.755, 104.109 24.029 C 102.661 28.864, 100.080 30.378, 94.639 29.586 C 92.363 29.255, 89.713 28.891, 88.750 28.778 C 86.920 28.562, 86.720 27.183, 87.912 23 L 88.624 20.500 89.328 23.237 C 90.848 29.151, 98.821 30.682, 101.176 25.513 C 102.701 22.166, 100.284 18.663, 94.761 16.214 C 89.502 13.882, 87.895 12.015, 87.784 8.104 C 87.689 4.755, 89.353 2.213, 92.465 0.952 C 93.584 0.498, 73.237 0.098, 47.250 0.063 L 0 0 0 34.500 M 0.228 35.250 C 0.374 57.342, 0.559 62.489, 0.749 49.750 L 1.042 30 6.271 29.970 C 10.310 29.946, 11.102 29.707, 9.750 28.920 C 8.394 28.130, 8 26.562, 8 21.950 C 8 18.678, 8.435 16, 8.968 16 C 10.686 16, 18.254 26.895, 17.643 28.488 C 17.166 29.732, 18.079 29.992, 22.781 29.955 C 28.076 29.913, 28.301 29.821, 25.816 28.705 C 23.216 27.538, 13 15.680, 13 13.830 C 13 12.327, 22.161 3, 23.637 3 C 24.387 3, 25 2.550, 25 2 C 25 1.450, 23.377 1, 21.393 1 C 18.787 1, 17.929 1.372, 18.301 2.342 C 18.842 3.751, 10.505 15, 8.919 15 C 8.414 15, 8 12.300, 8 9 C 8 4.333, 8.333 3, 9.500 3 C 10.325 3, 11 2.550, 11 2 C 11 1.450, 8.525 1, 5.500 1 L 0 1 0.228 35.250 M 59.540 2.347 C 58.263 3.281, 58.051 3.913, 58.849 4.406 C 59.608 4.876, 60 8.995, 60 16.509 C 60 26.303, 59.755 28.044, 58.250 28.920 C 56.870 29.724, 57.441 29.946, 60.950 29.970 C 64.411 29.993, 65.133 29.733, 64.200 28.800 C 62.858 27.458, 62.547 22, 63.813 22 C 65.368 22, 70.214 27.844, 69.550 28.919 C 69.112 29.627, 70.306 30, 73.011 30 L 77.140 30 71.820 25.005 C 65.927 19.472, 65.891 19.775, 73.054 14.802 L 75.500 13.105 71.781 13.052 C 68.925 13.012, 68.192 13.337, 68.621 14.456 C 68.939 15.283, 67.955 17.116, 66.340 18.706 L 63.500 21.500 63.215 11.250 C 63.058 5.612, 62.582 1, 62.156 1 C 61.731 1, 60.553 1.606, 59.540 2.347 M 220.923 3.923 C 218.959 5.887, 218 7.856, 218 9.923 C 218 11.991, 217.508 13, 216.500 13 C 215.675 13, 215 13.450, 215 14 C 215 14.550, 215.675 15, 216.500 15 C 217.680 15, 218 16.392, 218 21.532 C 218 27.372, 217.761 28.160, 215.750 28.969 C 214.017 29.665, 214.764 29.861, 219 29.821 C 222.025 29.792, 223.713 29.562, 222.750 29.311 C 221.296 28.931, 221 27.683, 221 21.927 C 221 15.737, 221.206 15, 222.941 15 C 224.009 15, 225.160 14.550, 225.500 14 C 225.851 13.433, 225.010 13, 223.559 13 C 221.313 13, 221 12.582, 221 9.582 C 221 7.702, 221.273 5.452, 221.607 4.582 C 222.287 2.810, 226.529 2.428, 227.530 4.049 C 227.974 4.766, 228.620 4.731, 229.578 3.935 C 231.570 2.282, 230.384 1, 226.864 1 C 224.862 1, 222.862 1.984, 220.923 3.923 M 1 16.083 C 1 26.105, 1.293 29.070, 2.250 28.752 C 3.142 28.455, 3.580 24.708, 3.780 15.668 C 4.019 4.842, 3.837 3, 2.530 3 C 1.235 3, 1 5.007, 1 16.083 M 112.357 12.970 C 107.091 15.148, 105.093 24.093, 109 28 C 111.323 30.323, 116.716 30.659, 119.461 28.652 C 121.104 27.451, 120.827 27.316, 116.902 27.402 C 112.798 27.493, 112.380 27.255, 110.727 23.875 C 108.691 19.712, 109.548 15.848, 112.904 14.051 C 114.524 13.184, 115.295 13.400, 116.958 15.185 C 118.259 16.582, 119.360 17.040, 119.964 16.436 C 122.369 14.031, 116.385 11.304, 112.357 12.970 M 148.500 12.924 C 139.700 16.620, 141.464 30, 150.751 30 C 155.234 30, 160 25.431, 160 21.133 C 160 15.520, 153.450 10.844, 148.500 12.924 M 166.110 13.396 C 160.770 16.355, 159.669 22.265, 163.589 26.923 C 169.882 34.402, 181.682 26.888, 177.917 17.799 C 176.759 15.005, 172.475 11.962, 169.800 12.035 C 169.085 12.055, 167.425 12.667, 166.110 13.396 M 29 15 C 27.593 16.407, 27 18.333, 27 21.500 C 27 27.080, 29.524 30, 34.345 30 C 37.469 30, 42.091 26.758, 40.803 25.470 C 40.518 25.185, 39.716 25.638, 39.020 26.476 C 36.144 29.941, 30.349 27.103, 29.773 21.947 C 29.515 19.632, 29.811 19.484, 35.250 19.200 C 38.413 19.035, 41 18.573, 41 18.173 C 41 17.772, 40.299 16.445, 39.443 15.223 C 37.408 12.317, 31.802 12.198, 29 15 M 45.350 15.203 C 42.385 18.465, 41.671 22.464, 43.442 25.887 C 45.678 30.212, 51.601 31.511, 55.559 28.546 C 57.344 27.209, 57.196 27.139, 53.727 27.680 C 50.936 28.116, 49.455 27.817, 48.034 26.531 C 45.222 23.986, 44.497 19.417, 46.435 16.459 C 48.226 13.726, 51.749 13.181, 52.638 15.500 C 53.452 17.621, 56.223 17.403, 55.815 15.250 C 55.265 12.354, 47.969 12.321, 45.350 15.203 M 148 15 C 145.263 17.737, 145.239 25.001, 147.960 27.464 C 152.697 31.751, 158.263 25.356, 155.934 18.301 C 154.995 15.455, 152.509 13, 150.566 13 C 150.255 13, 149.100 13.900, 148 15 M 167.081 14.750 C 163.185 17.936, 164.240 27.520, 168.607 28.616 C 174.571 30.113, 177.680 19.866, 172.686 15.174 C 169.894 12.552, 169.780 12.543, 167.081 14.750 M 199.455 15.455 C 194.120 20.789, 197.863 30, 205.366 30 C 209.647 30, 214 25.401, 214 20.878 C 214 16.650, 210.062 13, 205.500 13 C 203.021 13, 201.149 13.760, 199.455 15.455 M 31.238 15.162 C 29.179 17.221, 29.820 18, 33.573 18 C 36.437 18, 37.080 17.652, 36.813 16.250 C 36.409 14.127, 32.948 13.452, 31.238 15.162 M 201.557 16.223 C 198.192 21.026, 200.720 29, 205.608 29 C 207.532 29, 208.450 28.167, 209.624 25.358 C 211.284 21.384, 210.872 18.015, 208.427 15.570 C 206.210 13.353, 203.378 13.622, 201.557 16.223 M 64.500 43 C 64.160 43.550, 64.359 44, 64.941 44 C 65.545 44, 66 46.148, 66 49 L 66 54 62.089 54 C 54.655 54, 50.510 62.565, 55.112 68.416 C 57.123 70.972, 57.562 71.078, 64.202 70.628 C 71.500 70.132, 73.407 69.477, 70.643 68.417 C 69.237 67.877, 69 65.930, 69 54.893 C 69 42.797, 68.880 42, 67.059 42 C 65.991 42, 64.840 42.450, 64.500 43 M 175.750 43.055 C 173.591 44.344, 171 49.195, 171 51.950 C 171 53.106, 170.345 54, 169.500 54 C 168.675 54, 168 54.450, 168 55 C 168 55.550, 168.675 56, 169.500 56 C 170.679 56, 171 57.389, 171 62.500 C 171 67.611, 170.679 69, 169.500 69 C 168.675 69, 168 69.450, 168 70 C 168 70.550, 170.277 71, 173.059 71 C 176.177 71, 177.881 70.616, 177.500 70 C 177.160 69.450, 176.234 69, 175.441 69 C 174.334 69, 174 67.493, 174 62.500 C 174 56.233, 174.090 56, 176.500 56 C 177.875 56, 179 55.550, 179 55 C 179 54.450, 177.875 54, 176.500 54 C 174.267 54, 174 53.590, 174 50.155 C 174 45.659, 177.191 41.791, 179.224 43.824 C 180.795 45.395, 184.278 45.339, 183.756 43.750 C 183.230 42.147, 178.028 41.695, 175.750 43.055 M 190 44 C 190 44.550, 190.675 45, 191.500 45 C 192.729 45, 193 46.728, 193 54.550 C 193 66.305, 194.311 69.414, 199.983 71.113 C 205.095 72.645, 209.618 71.391, 212.398 67.671 C 214.131 65.352, 214.560 63.118, 214.844 54.930 C 215.110 47.227, 215.503 45, 216.594 45 C 217.367 45, 218 44.550, 218 44 C 218 43.450, 215.975 43, 213.500 43 C 211.025 43, 209 43.450, 209 44 C 209 44.550, 209.675 45, 210.500 45 C 211.737 45, 212 46.825, 212 55.427 C 212 65.501, 211.911 65.925, 209.365 67.927 C 205.905 70.649, 203.453 70.544, 200.455 67.545 C 198.174 65.265, 198 64.378, 198 55.045 C 198 45.667, 198.133 45, 200 45 C 201.100 45, 202 44.550, 202 44 C 202 43.444, 199.333 43, 196 43 C 192.667 43, 190 43.444, 190 44 M 220.197 45.290 C 215.909 49.855, 217.708 54.805, 225 58.500 C 231.189 61.636, 232.756 64.197, 230.548 67.567 C 229.570 69.060, 227.997 70, 226.477 70 C 223.732 70, 220 66.831, 220 64.500 C 220 63.675, 219.550 63, 219 63 C 218.450 63, 218 64.575, 218 66.500 C 218 68.425, 218.338 69.927, 218.750 69.839 C 219.162 69.750, 220.845 70.230, 222.490 70.905 C 226.387 72.505, 231.545 71.487, 233.471 68.738 C 235.139 66.356, 235.490 60.322, 234.089 58.110 C 233.605 57.345, 230.799 55.545, 227.854 54.110 C 221.941 51.227, 220.258 47.747, 223.596 45.306 C 226.312 43.320, 227.924 43.707, 231.099 47.106 L 234 50.212 234 46.755 L 234 43.299 228.197 43.125 C 223.278 42.978, 222.060 43.307, 220.197 45.290 M 241.091 46.674 C 236.054 51.711, 235.020 56.997, 237.830 63.348 C 240.418 69.199, 244.004 71.500, 250.534 71.500 C 254.625 71.500, 256.408 70.926, 259.394 68.649 C 263.903 65.210, 263.552 64.083, 258.863 66.942 C 254.061 69.870, 249.702 69.599, 245.822 66.132 C 242.945 63.562, 242.568 62.579, 242.192 56.669 C 241.793 50.404, 241.924 49.923, 244.809 47.037 C 246.479 45.367, 248.803 44, 249.973 44 C 253.437 44, 257.853 46.815, 259.557 50.110 C 261.607 54.074, 262.157 53.418, 261.399 47.913 L 260.791 43.500 252.856 43.172 L 244.922 42.843 241.091 46.674 M 74.500 46 C 73.684 47.320, 74.777 49, 76.452 49 C 77.915 49, 79.219 46.552, 78.264 45.598 C 77.332 44.665, 75.183 44.895, 74.500 46 M 98.480 46.032 C 98.092 46.660, 98.245 47.645, 98.820 48.220 C 100.164 49.564, 103.297 48.392, 102.750 46.749 C 102.194 45.078, 99.364 44.602, 98.480 46.032 M 155.421 54.427 C 153.620 55.206, 151.809 57.047, 151.058 58.860 C 147.378 67.744, 157.648 75.079, 164.364 68.364 C 171.142 61.585, 164.130 50.658, 155.421 54.427 M 40 56 C 38.593 57.407, 38 59.333, 38 62.500 C 38 68.080, 40.524 71, 45.345 71 C 48.469 71, 53.091 67.758, 51.803 66.470 C 51.518 66.185, 50.716 66.638, 50.020 67.476 C 47.023 71.087, 41 67.879, 41 62.671 C 41 60.100, 41.206 60, 46.500 60 C 52.430 60, 52.825 59.622, 50.443 56.223 C 48.408 53.317, 42.802 53.198, 40 56 M 75.750 54.689 C 73.897 55.174, 73.304 57, 75 57 C 75.555 57, 76 59.650, 76 62.950 C 76 67.562, 75.606 69.130, 74.250 69.920 C 72.894 70.710, 73.626 70.939, 77.500 70.939 C 81.374 70.939, 82.106 70.710, 80.750 69.920 C 79.331 69.093, 79 67.491, 79 61.450 C 79 57.353, 78.662 54.052, 78.250 54.116 C 77.838 54.180, 76.713 54.438, 75.750 54.689 M 84.073 56.635 C 81.199 60.288, 81.313 66.006, 84.314 68.826 C 86.979 71.328, 91.707 71.672, 94.559 69.569 C 96.327 68.266, 96.134 68.187, 92.386 68.683 C 88.871 69.148, 88.034 68.887, 86.636 66.891 C 85.736 65.606, 85 62.945, 85 60.977 C 85 55.368, 88.420 53.260, 92.108 56.598 C 94.276 58.560, 96.694 57.542, 94.926 55.411 C 94.282 54.635, 92.043 54, 89.950 54 C 87.031 54, 85.663 54.613, 84.073 56.635 M 99.750 54.689 C 97.897 55.174, 97.304 57, 99 57 C 99.555 57, 100 59.650, 100 62.950 C 100 67.562, 99.606 69.130, 98.250 69.920 C 96.894 70.710, 97.626 70.939, 101.500 70.939 C 105.374 70.939, 106.106 70.710, 104.750 69.920 C 103.331 69.093, 103 67.491, 103 61.450 C 103 57.353, 102.662 54.052, 102.250 54.116 C 101.838 54.180, 100.713 54.438, 99.750 54.689 M 108.551 55.339 C 106.896 56.549, 106.878 56.739, 108.360 57.308 C 110.783 58.238, 110.693 68.497, 108.250 69.920 C 106.875 70.721, 107.465 70.939, 111 70.939 C 114.535 70.939, 115.125 70.721, 113.750 69.920 C 112.492 69.187, 112 67.631, 112 64.385 C 112 57.233, 114.903 53.807, 119.072 56.039 C 121.765 57.480, 121.905 68.374, 119.250 69.920 C 117.881 70.717, 118.479 70.929, 122 70.891 C 124.475 70.864, 125.938 70.615, 125.250 70.338 C 124.446 70.013, 124 67.701, 124 63.851 C 124 56.111, 122.856 54, 118.665 54 C 116.869 54, 114.804 54.563, 114.075 55.250 C 113.015 56.250, 112.658 56.250, 112.292 55.250 C 111.706 53.652, 110.830 53.673, 108.551 55.339 M 128.405 56.105 C 125.531 59.281, 125.788 66.600, 128.861 69.088 C 132.624 72.136, 138.136 71.482, 140.133 67.752 C 141.168 65.817, 141.120 65.802, 138.882 67.370 C 137.602 68.266, 135.755 69, 134.777 69 C 132.199 69, 129 65.401, 129 62.500 C 129 60.136, 129.300 60, 134.500 60 C 140.168 60, 140.822 59.404, 138.965 55.934 C 137.487 53.172, 130.963 53.278, 128.405 56.105 M 42.238 56.162 C 40.179 58.221, 40.820 59, 44.573 59 C 47.437 59, 48.080 58.652, 47.813 57.250 C 47.409 55.127, 43.948 54.452, 42.238 56.162 M 57.557 57.223 C 53.584 62.895, 58.526 71.929, 64 69 C 65.651 68.117, 66 66.906, 66 62.072 C 66 57.653, 65.611 56.065, 64.418 55.607 C 61.427 54.459, 59.110 55.004, 57.557 57.223 M 130 57 C 129.010 58.850, 129.240 59, 133.072 59 C 136.438 59, 137.100 58.704, 136.607 57.418 C 136.273 56.548, 136 55.648, 136 55.418 C 136 53.983, 130.894 55.329, 130 57 M 155.203 56.256 C 151.730 60.441, 153.294 68.534, 157.795 69.663 C 162.870 70.937, 166.063 62.390, 162.443 57.223 C 160.740 54.791, 156.850 54.271, 155.203 56.256 M 0.448 114 C 0.449 137.925, 0.584 149.738, 0.748 140.250 C 1.026 124.207, 1.177 123, 2.907 123 C 3.930 123, 5.002 122.100, 5.290 121 C 5.708 119.402, 6.654 119, 10 119 C 13.346 119, 14.292 119.402, 14.710 121 C 15.043 122.273, 16.074 123, 17.547 123 L 19.860 123 16.888 114.855 C 12.846 103.782, 12.255 102.823, 9.690 103.189 C 7.952 103.437, 6.909 105.188, 4.507 111.888 L 1.500 120.276 0.974 95.388 C 0.565 76.089, 0.448 80.268, 0.448 114 M 76.667 100.667 C 75.224 102.110, 76.042 105, 77.893 105 C 80.179 105, 81.276 102.676, 79.722 101.122 C 78.438 99.838, 77.618 99.716, 76.667 100.667 M 137.306 101.645 C 136.927 102.632, 137.368 103.796, 138.407 104.556 C 140.044 105.753, 140.040 105.878, 138.328 106.836 C 137.332 107.394, 136.872 108.205, 137.306 108.640 C 138.666 110, 141.485 107.425, 141.830 104.508 C 142.290 100.622, 138.596 98.284, 137.306 101.645 M 301.104 100.915 C 299.214 102.111, 300.532 105.237, 302.747 104.810 C 303.711 104.625, 304.500 103.616, 304.500 102.570 C 304.500 100.351, 303.086 99.662, 301.104 100.915 M 21 110.500 C 21 118.630, 21.285 120.285, 22.977 121.977 C 25.028 124.028, 28 123.746, 28 121.500 C 28 120.793, 27.325 119.955, 26.500 119.638 C 25.320 119.186, 25 117.137, 25 110.031 C 25 101.667, 24.852 101, 23 101 C 21.140 101, 21 101.667, 21 110.500 M 44 112 C 44 122.333, 44.121 123, 46 123 C 47.778 123, 48 122.333, 48 117 C 48 111.267, 48.111 111, 50.500 111 C 52.889 111, 53 111.267, 53 117 C 53 122.333, 53.222 123, 55 123 C 56.793 123, 57 122.333, 57 116.571 C 57 107.814, 55.085 105.867, 48.971 108.409 C 47.716 108.931, 47.511 108.327, 47.827 105.022 C 48.164 101.478, 47.960 101, 46.105 101 C 44.093 101, 44 101.484, 44 112 M 179 112 C 179 121.111, 179.258 123, 180.500 123 C 181.542 123, 182 121.952, 182 119.565 C 182 114.477, 183.614 111, 185.975 111 C 187.783 111, 188 111.642, 188 117 C 188 122.333, 188.222 123, 190 123 C 191.793 123, 192 122.333, 192 116.571 C 192 107.805, 189.287 105.009, 184.223 108.557 C 182.023 110.097, 182 110.066, 182 105.557 C 182 102.173, 181.614 101, 180.500 101 C 179.258 101, 179 102.889, 179 112 M 162 105 C 162 106.467, 162.667 107, 164.500 107 C 166.958 107, 167 107.133, 167 115 C 167 122.333, 167.167 123, 169 123 C 170.833 123, 171 122.333, 171 115 L 171 107 174 107 C 176.333 107, 177 106.556, 177 105 C 177 103.178, 176.333 103, 169.500 103 C 162.667 103, 162 103.178, 162 105 M 289.290 106 C 289.002 107.100, 288.369 108, 287.883 108 C 287.398 108, 287 108.675, 287 109.500 C 287 110.325, 287.450 111, 288 111 C 288.550 111, 289 113.025, 289 115.500 C 289 121.974, 292.353 125.108, 297.213 123.179 C 299.292 122.355, 298.272 120.376, 295.500 119.857 C 293.936 119.564, 293.433 118.557, 293.193 115.241 C 292.905 111.278, 293.053 111, 295.443 111 C 297.049 111, 298 110.442, 298 109.500 C 298 108.644, 297.101 108, 295.906 108 C 294.654 108, 293.603 107.197, 293.290 106 C 293.002 104.900, 292.102 104, 291.290 104 C 290.477 104, 289.577 104.900, 289.290 106 M 63.500 108.195 C 60.589 109.846, 60.032 111.028, 60.015 115.595 C 59.997 120.506, 62.571 123.333, 67.061 123.333 C 70.820 123.333, 74.262 120.399, 72.082 119.051 C 71.185 118.497, 69.848 118.709, 68.445 119.628 C 66.482 120.914, 66.039 120.896, 64.613 119.470 C 61.951 116.809, 62.741 116, 68 116 C 72.867 116, 73 115.922, 73 113.057 C 73 108.258, 67.948 105.673, 63.500 108.195 M 89.223 108.557 C 87.977 109.429, 87 109.649, 87 109.057 C 87 108.476, 86.325 108, 85.500 108 C 84.300 108, 84 109.500, 84 115.500 C 84 122.269, 84.190 123, 85.950 123 C 87.623 123, 87.943 122.182, 88.200 117.250 C 88.460 112.267, 88.767 111.500, 90.500 111.500 C 92.233 111.500, 92.540 112.267, 92.800 117.250 C 93.054 122.127, 93.388 123, 95 123 C 96.612 123, 96.946 122.127, 97.200 117.250 C 97.466 112.156, 97.757 111.464, 99.750 111.180 C 101.871 110.879, 102 111.208, 102 116.930 C 102 122.333, 102.220 123, 104 123 C 105.793 123, 106 122.333, 106 116.571 C 106 108.011, 103.193 104.945, 98.498 108.378 C 96.897 109.549, 96.406 109.549, 95.235 108.378 C 93.451 106.594, 91.962 106.638, 89.223 108.557 M 111.635 109.073 C 108.224 111.755, 107.878 118.675, 111.013 121.512 C 113.545 123.803, 118.565 123.864, 120.798 121.631 C 122.284 120.143, 122.311 119.811, 121.008 119.005 C 120.088 118.437, 119.150 118.450, 118.558 119.042 C 116.955 120.645, 114.132 120.116, 113 118 C 111.996 116.123, 112.240 116, 116.965 116 C 121.871 116, 122 115.925, 122 113.057 C 122 111.149, 121.218 109.566, 119.777 108.557 C 116.796 106.468, 114.783 106.596, 111.635 109.073 M 131 109 C 129.444 110.556, 129 110.667, 129 109.500 C 129 108.667, 128.111 108, 127 108 C 125.178 108, 125 108.667, 125 115.500 C 125 122.333, 125.178 123, 127 123 C 128.660 123, 129 122.333, 129 119.082 C 129 113.633, 129.832 112, 132.607 112 C 134.493 112, 135 111.470, 135 109.500 C 135 106.481, 133.684 106.316, 131 109 M 144.223 108.557 C 143 109.413, 142 110.918, 142 111.902 C 142 114.039, 144.728 116.652, 147.489 117.158 C 150.230 117.661, 150.790 121, 148.132 121 C 147.024 121, 145.840 120.550, 145.500 120 C 144.538 118.444, 142 118.824, 142 120.525 C 142 122.923, 146.718 124.248, 150.644 122.952 C 153.461 122.023, 154 121.363, 154 118.842 C 154 116.267, 153.430 115.615, 150 114.268 C 147.800 113.404, 146 112.341, 146 111.907 C 146 110.439, 148.167 109.767, 149.287 110.887 C 150.915 112.515, 154 112.246, 154 110.475 C 154 109.032, 150.291 107, 147.657 107 C 146.991 107, 145.445 107.701, 144.223 108.557 M 197.635 109.073 C 195.523 110.734, 195 111.993, 195 115.418 C 195 120.515, 197.514 123.333, 202.061 123.333 C 205.893 123.333, 209.264 120.400, 207.023 119.014 C 206.019 118.394, 204.947 118.643, 203.677 119.792 C 201.910 121.391, 201.700 121.348, 199.785 118.991 L 197.760 116.500 202.880 116.198 C 207.790 115.908, 208 115.777, 208 113.004 C 208 111.151, 207.203 109.555, 205.777 108.557 C 202.796 106.468, 200.783 106.596, 197.635 109.073 M 217 109 C 215.444 110.556, 215 110.667, 215 109.500 C 215 108.667, 214.111 108, 213 108 C 211.178 108, 211 108.667, 211 115.500 C 211 122.333, 211.178 123, 213 123 C 214.660 123, 215 122.333, 215 119.082 C 215 113.633, 215.832 112, 218.607 112 C 220.493 112, 221 111.470, 221 109.500 C 221 106.481, 219.684 106.316, 217 109 M 225.389 107.980 C 222.231 109.256, 221.509 112, 224.331 112 C 225.579 112, 227.101 111.499, 227.713 110.887 C 229.010 109.590, 231 110.527, 231 112.434 C 231 113.158, 229.580 114.034, 227.845 114.381 C 223.673 115.215, 222 116.725, 222 119.655 C 222 122.436, 225.363 124.167, 228.500 123.001 C 229.600 122.592, 231.963 122.475, 233.750 122.742 C 236.274 123.119, 237 122.867, 237 121.613 C 237 120.726, 236.550 120, 236 120 C 235.450 120, 235 117.975, 235 115.500 C 235 108.612, 231.194 105.634, 225.389 107.980 M 244.250 108.522 C 243.007 109.401, 242 109.641, 242 109.057 C 242 108.476, 241.325 108, 240.500 108 C 239.258 108, 239 109.889, 239 119 C 239 129.333, 239.121 130, 241 130 C 242.670 130, 243 129.333, 243 125.965 C 243 122.227, 243.149 122.009, 245.019 123.010 C 251.104 126.267, 256.574 115.916, 252.249 109.329 C 250.888 107.257, 246.645 106.828, 244.250 108.522 M 258.635 109.073 C 256.523 110.734, 256 111.993, 256 115.418 C 256 120.515, 258.514 123.333, 263.061 123.333 C 266.893 123.333, 270.264 120.400, 268.023 119.014 C 267.026 118.398, 265.969 118.623, 264.773 119.706 C 263.142 121.182, 262.840 121.165, 261 119.500 C 257.934 116.726, 258.557 116, 264 116 C 268.867 116, 269 115.922, 269 113.057 C 269 111.149, 268.218 109.566, 266.777 108.557 C 263.796 106.468, 261.783 106.596, 258.635 109.073 M 311.736 107.692 C 309.876 108.177, 307 112.860, 307 115.403 C 307 118.495, 309.370 121.933, 312.175 122.911 C 315.472 124.060, 319.415 122.967, 320.300 120.659 C 321.098 118.582, 318.173 117.684, 316.397 119.460 C 314.510 121.347, 312.138 120.398, 311.401 117.462 C 310.171 112.560, 313.488 108.631, 316.400 111.542 C 317.201 112.344, 318.313 113, 318.870 113 C 320.929 113, 321.013 111.013, 319.036 109.036 C 317.056 107.056, 315.367 106.745, 311.736 107.692 M 8.986 109.250 C 8.979 109.938, 8.701 111.513, 8.370 112.750 C 7.864 114.638, 8.163 115, 10.234 115 C 12.596 115, 12.655 114.850, 11.606 111.500 C 10.534 108.075, 9.013 106.769, 8.986 109.250 M 29 109.500 C 29 110.547, 30.055 111, 32.498 111 L 35.997 111 32.498 115.869 C 30.574 118.548, 29 121.248, 29 121.869 C 29 122.585, 31.205 123, 35 123 C 39.667 123, 41 122.667, 41 121.500 C 41 120.446, 39.935 120, 37.415 120 L 33.830 120 37.415 115.116 C 39.387 112.430, 41 109.730, 41 109.116 C 41 108.419, 38.749 108, 35 108 C 30.333 108, 29 108.333, 29 109.500 M 76 115.500 C 76 122.333, 76.178 123, 78 123 C 79.822 123, 80 122.333, 80 115.500 C 80 108.667, 79.822 108, 78 108 C 76.178 108, 76 108.667, 76 115.500 M 272.015 114.250 C 272.024 117.688, 272.361 120.983, 272.765 121.573 C 274.185 123.646, 277.259 124.060, 279.641 122.500 C 280.938 121.649, 282 121.414, 282 121.977 C 282 122.540, 282.675 123, 283.500 123 C 284.700 123, 285 121.500, 285 115.500 C 285 108.667, 284.822 108, 283 108 C 281.248 108, 281 108.667, 281 113.378 C 281 116.866, 280.488 119.180, 279.544 119.964 C 277.088 122.001, 276 120.152, 276 113.941 C 276 108.667, 275.776 108, 274 108 C 272.212 108, 272.002 108.662, 272.015 114.250 M 301 115.500 C 301 122.333, 301.178 123, 303 123 C 304.822 123, 305 122.333, 305 115.500 C 305 108.667, 304.822 108, 303 108 C 301.178 108, 301 108.667, 301 115.500 M 64.667 110.667 C 63.200 112.133, 64.133 114, 66.333 114 C 69.343 114, 70.269 113.029, 68.869 111.342 C 67.671 109.899, 65.744 109.589, 64.667 110.667 M 114.250 110.662 C 111.733 111.678, 112.950 114, 116 114 C 119.196 114, 119.745 113.145, 117.800 111.200 C 116.521 109.921, 116.205 109.873, 114.250 110.662 M 200.250 110.662 C 197.733 111.678, 198.950 114, 202 114 C 205.196 114, 205.745 113.145, 203.800 111.200 C 202.521 109.921, 202.205 109.873, 200.250 110.662 M 244.690 111.154 C 242.619 112.313, 242.403 118.260, 244.373 119.895 C 247.413 122.418, 250.795 118.304, 249.599 113.538 C 248.905 110.775, 247.011 109.855, 244.690 111.154 M 261.250 110.662 C 259.071 111.541, 259.869 114, 262.333 114 C 265.343 114, 266.269 113.029, 264.869 111.342 C 263.695 109.928, 263.269 109.848, 261.250 110.662 M 227.750 116.746 C 225.800 117.192, 225.402 119.513, 227.096 120.559 C 228.560 121.464, 231.723 118.284, 230.457 117.180 C 229.931 116.721, 228.713 116.526, 227.750 116.746 M 108 145 C 108 155.240, 108.135 156, 109.950 156 C 111.623 156, 111.943 155.182, 112.200 150.250 C 112.466 145.156, 112.757 144.464, 114.750 144.180 C 116.871 143.879, 117 144.208, 117 149.930 C 117 155.377, 117.210 156, 119.044 156 C 120.941 156, 121.067 155.481, 120.794 148.750 C 120.505 141.628, 120.450 141.494, 117.690 141.178 C 116.144 141.001, 114.231 141.393, 113.440 142.050 C 112.222 143.061, 112 142.532, 112 138.622 C 112 134.667, 111.712 134, 110 134 C 108.121 134, 108 134.667, 108 145 M 182.500 135 C 181.577 136.494, 182.861 138, 185.059 138 C 186.333 138, 187 137.313, 187 136 C 187 133.879, 183.653 133.135, 182.500 135 M 3 146.500 C 3 155.333, 3.140 156, 5 156 C 6.626 156, 7 155.333, 7 152.430 C 7 149.315, 7.282 148.902, 9.217 149.180 C 10.736 149.399, 11.725 150.523, 12.361 152.750 C 13.063 155.207, 13.851 156, 15.593 156 C 17.749 156, 17.826 155.792, 16.803 152.750 C 16.202 150.963, 15.320 148.997, 14.843 148.383 C 14.314 147.702, 14.566 146.775, 15.488 146.010 C 17.673 144.196, 17.414 139.292, 15.066 138.035 C 14.002 137.466, 10.852 137, 8.066 137 L 3 137 3 146.500 M 132 146.500 C 132 155.333, 132.140 156, 134 156 C 135.860 156, 136 155.333, 136 146.500 C 136 137.667, 135.860 137, 134 137 C 132.140 137, 132 137.667, 132 146.500 M 7 143 C 7 145.828, 7.268 146.102, 9.750 145.816 C 11.932 145.565, 12.500 144.984, 12.500 143 C 12.500 141.016, 11.932 140.435, 9.750 140.184 C 7.268 139.898, 7 140.172, 7 143 M 82 148.500 C 82 154.500, 82.300 156, 83.500 156 C 84.493 156, 85 155.007, 85 153.065 C 85 148.560, 86.703 145, 88.859 145 C 89.926 145, 90.997 144.118, 91.290 143 C 91.946 140.492, 89.433 140.298, 86.829 142.655 C 85.127 144.195, 85 144.195, 85 142.655 C 85 141.745, 84.325 141, 83.500 141 C 82.300 141, 82 142.500, 82 148.500 M 140 148.500 C 140 155.269, 140.190 156, 141.950 156 C 143.622 156, 143.943 155.182, 144.200 150.260 C 144.445 145.571, 144.844 144.454, 146.380 144.161 C 148.960 143.670, 149.967 145.650, 149.985 151.250 C 149.998 155.328, 150.283 156, 152 156 C 153.730 156, 154 155.333, 154 151.065 C 154 143.826, 152.659 141, 149.225 141 C 147.671 141, 145.860 141.540, 145.200 142.200 C 144.267 143.133, 144 143.133, 144 142.200 C 144 141.540, 143.100 141, 142 141 C 140.178 141, 140 141.667, 140 148.500 M 183 148.500 C 183 155.333, 183.178 156, 185 156 C 186.822 156, 187 155.333, 187 148.500 C 187 141.667, 186.822 141, 185 141 C 183.178 141, 183 141.667, 183 148.500 M 24.667 144.667 C 23.237 146.096, 24.129 147, 26.969 147 C 29.197 147, 29.794 146.626, 29.362 145.500 C 28.775 143.972, 25.876 143.458, 24.667 144.667 M 53.709 144.624 C 52.223 146.110, 53.112 147, 56.083 147 C 58.103 147, 59.025 146.569, 58.755 145.750 C 58.288 144.332, 54.783 143.550, 53.709 144.624 M 233.638 145.500 C 233.206 146.626, 233.803 147, 236.031 147 C 238.003 147, 239 146.496, 239 145.500 C 239 144.585, 238.067 144, 236.607 144 C 235.291 144, 233.955 144.675, 233.638 145.500 M 68.624 151.538 C 67.980 153.216, 70.255 154.578, 71.952 153.530 C 72.528 153.173, 73 152.234, 73 151.441 C 73 149.512, 69.371 149.592, 68.624 151.538 M 71.909 156.077 C 70.884 156.727, 71.249 156.974, 73.250 156.985 C 76.236 157.001, 76.774 156.511, 74.659 155.700 C 73.922 155.417, 72.684 155.587, 71.909 156.077" stroke="none" fill="#f9f7f7" fill-rule="evenodd"/></svg>